<svg width="68" height="50" viewBox="0 0 68 50" fill="none" xmlns="http://www.w3.org/2000/svg">
<g opacity="0.5">
<path d="M50.9975 0H7.72721C5.67868 0.00258713 3.71452 0.817546 2.26578 2.26577C0.817428 3.71465 0.00251679 5.67881 0 7.72722V32.454V32.4535C0.00258713 34.5021 0.817547 36.4662 2.26578 37.915C3.71465 39.3633 5.67881 40.1782 7.72721 40.1807H32.4527H32.4522C33.306 40.1807 33.9978 39.4884 33.9978 38.6352C33.9978 37.7819 33.306 37.0896 32.4522 37.0896H7.72802C6.49861 37.0886 5.32038 36.5996 4.45116 35.7303C3.58194 34.8609 3.09289 33.6828 3.09183 32.4534V15.4544H57.1803C57.5902 15.4544 57.9834 15.292 58.2732 15.0022C58.5634 14.7124 58.7259 14.3192 58.7259 13.9089V7.72709V7.72761C58.7233 5.67908 57.9084 3.71492 56.4601 2.26617C55.0113 0.817825 53.0471 0.00291396 50.9987 0.00039717L50.9975 0ZM3.09102 7.72735C3.09205 6.49793 3.58102 5.3197 4.45035 4.45048C5.31968 3.58126 6.49783 3.09221 7.72721 3.09115H50.9988H50.9983C52.2277 3.09219 53.4059 3.58116 54.2752 4.45048C55.1444 5.31981 55.6334 6.49796 55.6345 7.72735V12.3635H3.09183L3.09102 7.72735Z" fill="black"/>
<path d="M54.0891 21.6362C50.4003 21.6362 46.8626 23.1015 44.2543 25.71C41.646 28.3184 40.1805 31.856 40.1805 35.5448C40.1805 39.2336 41.6458 42.7713 44.2543 45.3796C46.8626 47.988 50.4003 49.4534 54.0891 49.4534C57.778 49.4534 61.3156 47.9881 63.924 45.3796C66.5323 42.7713 67.9977 39.2336 67.9977 35.5448C67.9936 31.8571 66.5267 28.322 63.9193 25.7141C61.3119 23.1067 57.7764 21.6398 54.0891 21.6362ZM54.0891 46.3631V46.3625C51.22 46.3625 48.4682 45.2231 46.4394 43.1943C44.4111 41.1655 43.2712 38.4137 43.2712 35.5451C43.2712 32.676 44.4111 29.9242 46.4394 27.8954C48.4682 25.8671 51.22 24.7271 54.0891 24.7271C56.9577 24.7271 59.7095 25.867 61.7383 27.8954C63.7671 29.9242 64.9066 32.676 64.9066 35.5451C64.9035 38.4126 63.7625 41.1623 61.7347 43.1907C59.7065 45.2186 56.9568 46.3595 54.0891 46.3625V46.3631Z" fill="black"/>
<path d="M58.7254 35.5449C58.7254 35.9547 58.5629 36.3479 58.2726 36.6377C57.9829 36.9275 57.5896 37.0905 57.1798 37.0899H55.6342V38.6355C55.6342 39.4888 54.9424 40.1811 54.0892 40.1811C53.2354 40.1811 52.5436 39.4888 52.5436 38.6355V37.0899H50.998C50.1448 37.0899 49.453 36.3981 49.453 35.5449C49.453 34.6911 50.1448 33.9993 50.998 33.9993H52.5436V32.4537C52.5436 31.6005 53.2354 30.9087 54.0892 30.9087C54.9424 30.9087 55.6342 31.6005 55.6342 32.4537V33.9993H57.1798C57.5896 33.9993 57.9829 34.1618 58.2726 34.4516C58.5629 34.7413 58.7254 35.1346 58.7254 35.5449V35.5449Z" fill="black"/>
</g>
</svg>
