<svg width="60" height="47" viewBox="0 0 60 47" fill="none" xmlns="http://www.w3.org/2000/svg">
<path d="M29.996 37.5074C35.9323 37.5074 40.7761 32.6729 40.7761 26.7272C40.7761 20.7909 35.9323 15.9564 29.996 15.9564C24.0597 15.9558 19.2158 20.7903 19.2158 26.7266C19.2158 32.6729 24.0597 37.5072 29.996 37.5072V37.5074ZM29.996 17.8464C34.8968 17.8464 38.8858 21.8356 38.8858 26.7362C38.8858 31.6469 34.8966 35.6361 29.996 35.6361C25.0953 35.6361 21.1061 31.6469 21.1061 26.7362C21.1061 21.8354 25.0953 17.8464 29.996 17.8464Z" fill="black" fill-opacity="0.5"/>
<path d="M54.0346 5.29026H43.5772C41.1272 5.29026 39.4934 4.26465 39.4934 3.59027C39.4934 1.54836 36.9287 0 33.5379 0H26.4528C23.062 0 20.4974 1.54834 20.4974 3.59027C20.4974 4.26474 18.8636 5.29959 16.4136 5.29959H12.6901V2.43151C12.6901 1.90943 12.2628 1.48143 11.7401 1.48143H4.84446C4.32239 1.48143 3.89438 1.90876 3.89438 2.43151V5.67069C1.63384 6.51609 0 8.69125 0 11.2651V40.5293C0 43.8255 2.66862 46.4941 5.95546 46.4941H54.0445C57.3307 46.4941 60 43.8255 60 40.5293V11.2566C59.9907 7.97041 57.3221 5.29179 54.0352 5.29179L54.0346 5.29026ZM5.78436 5.29026V3.37165H10.7898V5.29026H5.78436ZM5.95529 7.18054H16.4127C19.8035 7.18054 22.3681 5.64214 22.3681 3.59027C22.3681 2.91581 24.0019 1.89029 26.452 1.89029H33.5377C35.9884 1.89029 37.6215 2.90661 37.6215 3.59027C37.6215 5.64219 40.1862 7.18054 43.577 7.18054H54.0437C56.2851 7.18054 58.1275 9.00451 58.1275 11.2644V13.9615L38.9889 13.9622C36.4343 12.1573 33.3376 11.1034 29.9944 11.1034C26.6513 11.1034 23.5545 12.1575 20.9999 13.9523H1.86976V11.2552C1.86976 9.00399 3.70306 7.1807 5.95427 7.1807L5.95529 7.18054ZM29.9939 12.9837C37.5825 12.9837 43.7374 19.1479 43.7374 26.7272C43.7374 34.3159 37.5825 40.4708 29.9939 40.4708C22.4238 40.4708 16.2504 34.3159 16.2504 26.7272C16.2504 19.1478 22.4238 12.9837 29.9939 12.9837ZM54.0325 44.6038H5.9536C3.71222 44.6038 1.86976 42.7798 1.86976 40.52L1.8691 15.8436H18.8042C16.0592 18.6647 14.3592 22.5021 14.3592 26.7284C14.3592 35.3433 21.3688 42.3623 29.9931 42.3623C38.6173 42.3623 45.6269 35.3433 45.6269 26.7284C45.6269 22.5014 43.9176 18.6547 41.1913 15.8436H58.107V40.5284C58.117 42.7797 56.2837 44.6036 54.0325 44.6036L54.0325 44.6038Z" fill="black" fill-opacity="0.5"/>
<path d="M51.9754 36.7865C50.5318 36.7865 49.3445 37.9645 49.3445 39.4175C49.3445 40.8612 50.5317 42.0485 51.9754 42.0485C53.4191 42.0485 54.6064 40.8612 54.6064 39.4175C54.6157 37.9646 53.4284 36.7865 51.9754 36.7865ZM51.9754 40.1582C51.5673 40.1582 51.2347 39.8256 51.2347 39.4175C51.2347 38.9994 51.5673 38.6668 51.9754 38.6668C52.3836 38.6668 52.7162 38.9994 52.7162 39.4175C52.7254 39.8263 52.3836 40.1582 51.9754 40.1582Z" fill="black" fill-opacity="0.5"/>
<path d="M26.083 5.90763H33.9096C34.4317 5.90763 34.8597 5.4803 34.8597 4.95755C34.8597 4.43548 34.4323 4.01741 33.9096 4.01741H26.083C25.5609 4.01741 25.1329 4.43546 25.1329 4.95755C25.1329 5.48028 25.5603 5.90763 26.083 5.90763Z" fill="black" fill-opacity="0.5"/>
</svg>
