<svg width="21" height="19" viewBox="0 0 21 19" fill="none" xmlns="http://www.w3.org/2000/svg">
<g filter="url(#filter0_i_6508_1895)">
<path d="M5.09795 14.113L4.62943 13.5274C4.76241 13.421 4.92764 13.363 5.09795 13.363V14.113ZM1.00013 17.3913L1.46865 17.977C1.24353 18.1571 0.935091 18.1922 0.675241 18.0673C0.415392 17.9424 0.250134 17.6796 0.250134 17.3913H1.00013ZM1.00013 14.113L0.804071 13.3891C1.02947 13.3281 1.27045 13.3755 1.4559 13.5174C1.64136 13.6593 1.75013 13.8795 1.75013 14.113H1.00013ZM1.00009 14.113L1.19615 14.837C0.970749 14.898 0.729773 14.8506 0.544317 14.7087C0.35886 14.5668 0.250088 14.3466 0.250088 14.113H1.00009ZM19.1001 3C19.1001 2.30964 18.5405 1.75 17.8501 1.75V0.25C19.3689 0.25 20.6001 1.48122 20.6001 3H19.1001ZM19.1001 12.113V3H20.6001V12.113H19.1001ZM17.8501 13.363C18.5405 13.363 19.1001 12.8034 19.1001 12.113H20.6001C20.6001 13.6318 19.3689 14.863 17.8501 14.863V13.363ZM5.09795 13.363H17.8501V14.863H5.09795V13.363ZM0.531612 16.8056L4.62943 13.5274L5.56647 14.6987L1.46865 17.977L0.531612 16.8056ZM1.75013 14.113V17.3913H0.250134V14.113H1.75013ZM0.804026 13.3891L0.804071 13.3891L1.1962 14.837L1.19615 14.837L0.804026 13.3891ZM1.75009 3V14.113H0.250088V3H1.75009ZM3.00008 1.75C2.30973 1.75 1.75009 2.30964 1.75009 3H0.250088C0.250088 1.48122 1.4813 0.25 3.00008 0.25V1.75ZM17.8501 1.75H3.00008V0.25H17.8501V1.75Z" fill="#8C9FB1"/>
</g>
<defs>
<filter id="filter0_i_6508_1895" x="0.25" y="0.25" width="20.3501" height="18.8914" filterUnits="userSpaceOnUse" color-interpolation-filters="sRGB">
<feFlood flood-opacity="0" result="BackgroundImageFix"/>
<feBlend mode="normal" in="SourceGraphic" in2="BackgroundImageFix" result="shape"/>
<feColorMatrix in="SourceAlpha" type="matrix" values="0 0 0 0 0 0 0 0 0 0 0 0 0 0 0 0 0 0 127 0" result="hardAlpha"/>
<feOffset dy="1"/>
<feGaussianBlur stdDeviation="1"/>
<feComposite in2="hardAlpha" operator="arithmetic" k2="-1" k3="1"/>
<feColorMatrix type="matrix" values="0 0 0 0 0.351493 0 0 0 0 0.39658 0 0 0 0 0.441667 0 0 0 1 0"/>
<feBlend mode="normal" in2="shape" result="effect1_innerShadow_6508_1895"/>
</filter>
</defs>
</svg>
