<svg width="23" height="29" viewBox="0 0 23 29" fill="none" xmlns="http://www.w3.org/2000/svg">
<path d="M22.0417 0H2.875C2.34535 0 1.91667 0.428682 1.91667 0.958333V3.83333H0.958333C0.428682 3.83333 0 4.26201 0 4.79167C0 5.32132 0.428682 5.75 0.958333 5.75H1.91667V8.625H0.958333C0.428682 8.625 0 9.05368 0 9.58333C0 10.113 0.428682 10.5417 0.958333 10.5417H1.91667V13.4167H0.958333C0.428682 13.4167 0 13.8453 0 14.375C0 14.9047 0.428682 15.3333 0.958333 15.3333H1.91667V18.2083H0.958333C0.428682 18.2083 0 18.637 0 19.1667C0 19.6963 0.428682 20.125 0.958333 20.125H1.91667V23H0.958333C0.428682 23 0 23.4287 0 23.9583C0 24.488 0.428682 24.9167 0.958333 24.9167H1.91667V27.7917C1.91667 28.3213 2.34535 28.75 2.875 28.75H22.0417C22.5713 28.75 23 28.3213 23 27.7917V0.958333C23 0.428682 22.5713 0 22.0417 0ZM21.0833 26.8333H3.83333V24.9167H4.79167C5.32132 24.9167 5.75 24.488 5.75 23.9583C5.75 23.4287 5.32132 23 4.79167 23H3.83333V20.125H4.79167C5.32132 20.125 5.75 19.6963 5.75 19.1667C5.75 18.637 5.32132 18.2083 4.79167 18.2083H3.83333V15.3333H4.79167C5.32132 15.3333 5.75 14.9047 5.75 14.375C5.75 13.8453 5.32132 13.4167 4.79167 13.4167H3.83333V10.5417H4.79167C5.32132 10.5417 5.75 10.113 5.75 9.58333C5.75 9.05368 5.32132 8.625 4.79167 8.625H3.83333V5.75H4.79167C5.32132 5.75 5.75 5.32132 5.75 4.79167C5.75 4.26201 5.32132 3.83333 4.79167 3.83333H3.83333V1.91667H21.0833V26.8333Z" fill="#8386A6"/>
<path d="M12.4583 14.3749C14.5724 14.3749 16.2917 12.6557 16.2917 10.5416C16.2917 8.4275 14.5724 6.70825 12.4583 6.70825C10.3443 6.70825 8.625 8.4275 8.625 10.5416C8.625 12.6557 10.3443 14.3749 12.4583 14.3749ZM12.4583 8.62492C13.5149 8.62492 14.375 9.48506 14.375 10.5416C14.375 11.5981 13.5149 12.4583 12.4583 12.4583C11.4018 12.4583 10.5417 11.5981 10.5417 10.5416C10.5417 9.48506 11.4018 8.62492 12.4583 8.62492Z" fill="#8386A6"/>
<path d="M7.66659 22.0416H17.2499C17.7796 22.0416 18.2083 21.6129 18.2083 21.0833C18.2083 17.9124 15.6291 15.3333 12.4583 15.3333C9.28743 15.3333 6.70825 17.9124 6.70825 21.0833C6.70825 21.6129 7.13693 22.0416 7.66659 22.0416ZM12.4583 17.2499C14.2395 17.2499 15.727 18.4761 16.1556 20.1249H8.76106C9.18952 18.4761 10.6771 17.2499 12.4584 17.2499H12.4583Z" fill="#8386A6"/>
</svg>
