<svg width="331" height="17" viewBox="0 0 331 17" fill="none" xmlns="http://www.w3.org/2000/svg">
<path d="M75.679 16.0104C73.9682 16.0479 72.5446 16.0373 71.5 16L75.679 16.0104C81.6114 15.8806 90.9965 15.1733 100 13C114.5 9.5 142.5 1 160 1C177.5 1 186.5 2.5 204 6.5C222.5 11.5 227 12 230 13C232.795 13.9318 248.613 16.1658 258.04 16.4663L271.5 16.5H260C259.386 16.5 258.73 16.4884 258.04 16.4663L75.679 16.0104Z" fill="#E3EDF7"/>
<path fill-rule="evenodd" clip-rule="evenodd" d="M117.629 8.85613L118.085 8.73802C133.263 4.80204 147.629 1.07681 165.056 1.00117C182.483 1.07681 196.85 4.80204 212.028 8.73802L212.484 8.85613C236.001 14.9537 248.048 16.3721 256.109 16.3721C262.507 16.3721 308.104 16.7054 330.105 16.8721L330.113 15.8721C308.115 15.7055 262.512 15.3721 256.109 15.3721C248.171 15.3721 236.217 13.9767 212.735 7.88814L212.24 7.75988C197.501 3.93786 183.414 0.284752 166.507 0.015831L166.507 0.00329906C166.021 -0.00022302 165.538 -0.000909947 165.057 0.00116621C164.575 -0.000909947 164.092 -0.00022302 163.606 0.00329906L163.606 0.015831C146.699 0.284752 132.612 3.93786 117.873 7.75988L117.378 7.88814C93.8956 13.9767 81.9425 15.3721 74.0038 15.3721C67.6013 15.3721 21.9983 15.7055 0 15.8721L0.00757554 16.8721C22.0093 16.7054 67.6063 16.3721 74.0038 16.3721C82.0651 16.3721 94.1119 14.9537 117.629 8.85613Z" fill="url(#paint0_linear_7407_1426)"/>
<defs>
<linearGradient id="paint0_linear_7407_1426" x1="330.113" y1="0" x2="0" y2="0" gradientUnits="userSpaceOnUse">
<stop stop-color="#8C9FB1" stop-opacity="0.1"/>
<stop offset="0.496572" stop-color="#6E8AA6"/>
<stop offset="1" stop-color="#8C9FB1" stop-opacity="0.1"/>
</linearGradient>
</defs>
</svg>
