<svg width="22" height="23" viewBox="0 0 22 23" fill="none" xmlns="http://www.w3.org/2000/svg">
<path d="M21.7857 11.3296L20.4418 9.28004L20.5761 6.8273C20.6096 6.4912 20.408 6.18884 20.1057 6.02084L17.888 4.91204L16.7792 2.69438C16.6449 2.39203 16.3088 2.22399 15.9728 2.22399L13.52 2.39204L11.4704 1.04816C11.2016 0.880107 10.832 0.880107 10.5296 1.04816L8.48004 2.39204L6.0273 2.25774C5.6912 2.22422 5.38884 2.42579 5.22084 2.72813L4.11204 4.94579L1.89438 6.05459C1.59204 6.18889 1.424 6.52498 1.424 6.86105L1.55829 9.31379L0.214415 11.3634C0.0463669 11.6322 0.0463669 12.0019 0.214415 12.3042L1.55829 14.3538L1.424 16.8065C1.39048 17.1426 1.59204 17.445 1.89438 17.613L4.11204 18.7218L5.22084 20.9395C5.35514 21.2418 5.69123 21.4098 6.0273 21.4098L8.48004 21.2755L10.5296 22.6194C10.6639 22.7202 10.832 22.7537 11 22.7537C11.1681 22.7537 11.3361 22.7202 11.4704 22.6194L13.52 21.2755L15.9727 21.4098C16.3088 21.4434 16.6112 21.2418 16.7792 20.9395L17.888 18.7218L20.1057 17.613C20.408 17.4787 20.576 17.1426 20.576 16.8065L20.408 14.3201L21.7519 12.2705C21.9534 11.9681 21.9534 11.632 21.7856 11.3297L21.7857 11.3296ZM18.8623 13.6481C18.7615 13.8161 18.728 13.9842 18.728 14.152L18.8623 16.3359L16.9135 17.3102C16.7454 17.3774 16.6111 17.5117 16.5439 17.6798L15.5696 19.6286L13.3519 19.528C13.1839 19.528 12.9823 19.5615 12.848 19.6623L11 20.8719L9.15191 19.6623C9.01761 19.5615 8.84956 19.528 8.68152 19.528H8.64801L6.46413 19.6623L5.48985 17.7135C5.42259 17.5455 5.28829 17.4112 5.12024 17.3439L3.17144 16.3696L3.27199 14.152C3.27199 13.9839 3.23847 13.7824 3.13769 13.6481L1.92809 11.8L3.13769 9.95195C3.23847 9.7839 3.27199 9.61585 3.27199 9.44804L3.13769 7.26416L5.08649 6.28988C5.25454 6.22262 5.38883 6.08832 5.4561 5.92027L6.43038 3.97147L8.64804 4.07202C8.81608 4.07202 9.01765 4.0385 9.15194 3.93772L11 2.72812L12.8481 3.93772C13.0161 4.0385 13.1842 4.07202 13.352 4.07202L15.5358 3.93772L16.5101 5.88652C16.5774 6.05457 16.7117 6.18887 16.8797 6.25613L18.8285 7.23041L18.728 9.44808C18.728 9.61612 18.7615 9.81769 18.8623 9.95198L20.0719 11.8L18.8623 13.6481Z" fill="#8C9FB1"/>
<path d="M8.37938 11.5312C9.85784 11.5312 11.0337 10.3216 11.0337 8.87694C11.0337 7.39848 9.82406 6.22266 8.37938 6.22266C6.90092 6.22266 5.7251 7.43226 5.7251 8.87694C5.72486 10.3216 6.93446 11.5312 8.37938 11.5312ZM8.37938 7.86888C8.91703 7.86888 9.35366 8.30575 9.35366 8.84316C9.35366 9.38081 8.91679 9.81744 8.37938 9.81744C7.84172 9.81744 7.4051 9.38056 7.4051 8.84316C7.40486 8.30574 7.84174 7.86888 8.37938 7.86888Z" fill="#8C9FB1"/>
<path d="M13.6208 12.0688C12.1424 12.0688 10.9666 13.2784 10.9666 14.7231C10.9666 16.2016 12.1762 17.3774 13.6208 17.3774C15.0655 17.3774 16.2751 16.1678 16.2751 14.7231C16.2754 13.2784 15.0658 12.0688 13.6208 12.0688ZM13.6208 15.7312C13.0832 15.7312 12.6466 15.2943 12.6466 14.7569C12.6466 14.2193 13.0834 13.7826 13.6208 13.7826C14.1585 13.7826 14.5951 14.2195 14.5951 14.7569C14.5954 15.2943 14.1585 15.7312 13.6208 15.7312Z" fill="#8C9FB1"/>
<path d="M6.10596 15.5062L14.7304 6.88184L15.9182 8.06966L7.29378 16.6941L6.10596 15.5062Z" fill="#8C9FB1"/>
</svg>
