<svg width="70" height="85" viewBox="0 0 70 85" fill="none" xmlns="http://www.w3.org/2000/svg">
<g opacity="0.7">
<path d="M33.5046 7.55713H19.5977C18.6334 7.55713 17.8641 8.339 17.8641 9.29067C17.8641 10.255 18.6328 11.0368 19.5977 11.0368H33.5052C34.4563 11.0368 35.2381 10.2549 35.2381 9.30327C35.2381 8.33898 34.4562 7.55713 33.5046 7.55713V7.55713Z" fill="#142237"/>
<path d="M57.8263 29.0752H43.932C42.9677 29.0752 42.1985 29.8571 42.1985 30.8087C42.1985 31.773 42.9804 32.5423 43.932 32.5423H57.8395C58.8038 32.5423 59.5731 31.7604 59.5731 30.8087C59.5731 29.8445 58.7906 29.0752 57.8263 29.0752Z" fill="#142237"/>
<path d="M57.8263 36.2183H43.932C42.9677 36.2183 42.1985 37.0001 42.1985 37.9518C42.1985 38.9161 42.9804 39.6853 43.932 39.6853H57.8395C58.8038 39.6853 59.5731 38.9035 59.5731 37.9518C59.5731 37.0007 58.7906 36.2183 57.8263 36.2183V36.2183Z" fill="#142237"/>
<path d="M26.5458 77.0801C29.4261 77.0801 31.7592 74.747 31.7592 71.8667C31.7592 68.9864 29.4261 66.6533 26.5458 66.6533C23.6655 66.6533 21.3324 68.9864 21.3324 71.8667C21.3318 74.747 23.6781 77.0801 26.5458 77.0801ZM26.5458 70.1199C27.4975 70.1199 28.2793 70.9018 28.2793 71.8535C28.2793 72.8178 27.4975 73.587 26.5458 73.587C25.5941 73.6002 24.8123 72.8183 24.8123 71.8667C24.8123 70.9024 25.5941 70.1199 26.5458 70.1199V70.1199Z" fill="#142237"/>
<path d="M64.7866 21.4638H52.6259V5.82275C52.6259 2.94247 50.2928 0.609375 47.4125 0.609375H5.70306C2.82278 0.609375 0.489685 2.94247 0.489685 5.82275V78.8127C0.489685 81.693 2.82278 84.0261 5.70306 84.0261H47.4125C50.2928 84.0261 52.6259 81.693 52.6259 78.8127V49.2634H64.7866C67.6669 49.2634 70 46.9303 70 44.0501V26.6762C70 23.7954 67.6543 21.4624 64.7866 21.4624V21.4638ZM3.95677 5.82275C3.95677 4.85846 4.73864 4.08921 5.69031 4.08921H47.3997C48.3514 4.08921 49.1333 4.87107 49.1333 5.82275V14.5164H3.95677V5.82275ZM49.1456 78.8127C49.1456 79.777 48.3637 80.5463 47.412 80.5463H5.7026C4.73771 80.5463 3.95585 79.7776 3.95585 78.8127V63.1717H49.1447L49.1456 78.8127ZM49.1456 59.6923H3.95677V17.9829H49.1456L49.1462 21.4632H36.9854C34.1052 21.4632 31.7721 23.7963 31.7721 26.6765V44.0504C31.7721 46.9306 34.1052 49.2637 36.9854 49.2637V52.7447C36.9854 53.3573 37.6113 54.9865 39.5663 54.2694L48.56 49.2775H49.1462L49.1456 59.6923ZM66.5194 44.0513C66.5194 45.0156 65.7375 45.7848 64.7859 45.7848H48.1018C47.8017 45.7848 47.5155 45.8628 47.2545 46.0063L40.4504 49.7859V47.5309C40.4504 46.5666 39.6686 45.7973 38.7169 45.7973H36.9834C36.0191 45.7973 35.2498 45.0155 35.2498 44.0638L35.2504 26.6777C35.2504 25.7134 36.0323 24.9441 36.984 24.9441H64.7851C65.7368 24.9441 66.5187 25.726 66.5187 26.6777L66.5194 44.0513Z" fill="#142237"/>
</g>
</svg>
