<svg width="167" height="45" viewBox="0 0 167 45" fill="none" xmlns="http://www.w3.org/2000/svg">
<circle cx="144.5" cy="22.5" r="22.5" fill="white"/>
<path d="M11.358 21.058C12.246 21.058 13.02 20.95 13.68 20.734C14.34 20.506 14.886 20.188 15.318 19.78C15.762 19.36 16.092 18.856 16.308 18.268C16.524 17.668 16.632 17.002 16.632 16.27C16.632 15.574 16.524 14.944 16.308 14.38C16.092 13.816 15.768 13.336 15.336 12.94C14.904 12.544 14.358 12.244 13.698 12.04C13.038 11.824 12.258 11.716 11.358 11.716H7.74V21.058H11.358ZM11.358 7.972C13.098 7.972 14.604 8.176 15.876 8.584C17.148 8.992 18.198 9.562 19.026 10.294C19.854 11.026 20.466 11.902 20.862 12.922C21.27 13.942 21.474 15.058 21.474 16.27C21.474 17.53 21.264 18.688 20.844 19.744C20.424 20.788 19.794 21.688 18.954 22.444C18.114 23.2 17.058 23.788 15.786 24.208C14.526 24.628 13.05 24.838 11.358 24.838H7.74V34H2.898V7.972H11.358ZM28.8608 17.512C29.5808 16.84 30.3728 16.294 31.2368 15.874C32.1008 15.454 33.1148 15.244 34.2788 15.244C35.2868 15.244 36.1808 15.418 36.9608 15.766C37.7408 16.102 38.3888 16.582 38.9048 17.206C39.4328 17.818 39.8288 18.556 40.0928 19.42C40.3688 20.272 40.5068 21.214 40.5068 22.246V34H36.0608V22.246C36.0608 21.118 35.8028 20.248 35.2868 19.636C34.7708 19.012 33.9848 18.7 32.9288 18.7C32.1608 18.7 31.4408 18.874 30.7688 19.222C30.0968 19.57 29.4608 20.044 28.8608 20.644V34H24.4148V7.252H28.8608V17.512ZM52.9071 15.244C54.2751 15.244 55.5171 15.466 56.6331 15.91C57.7611 16.354 58.7211 16.984 59.5131 17.8C60.3171 18.616 60.9351 19.612 61.3671 20.788C61.7991 21.964 62.0151 23.278 62.0151 24.73C62.0151 26.194 61.7991 27.514 61.3671 28.69C60.9351 29.866 60.3171 30.868 59.5131 31.696C58.7211 32.524 57.7611 33.16 56.6331 33.604C55.5171 34.048 54.2751 34.27 52.9071 34.27C51.5271 34.27 50.2731 34.048 49.1451 33.604C48.0171 33.16 47.0511 32.524 46.2471 31.696C45.4551 30.868 44.8371 29.866 44.3931 28.69C43.9611 27.514 43.7451 26.194 43.7451 24.73C43.7451 23.278 43.9611 21.964 44.3931 20.788C44.8371 19.612 45.4551 18.616 46.2471 17.8C47.0511 16.984 48.0171 16.354 49.1451 15.91C50.2731 15.466 51.5271 15.244 52.9071 15.244ZM52.9071 30.85C54.4431 30.85 55.5771 30.334 56.3091 29.302C57.0531 28.27 57.4251 26.758 57.4251 24.766C57.4251 22.774 57.0531 21.256 56.3091 20.212C55.5771 19.168 54.4431 18.646 52.9071 18.646C51.3471 18.646 50.1891 19.174 49.4331 20.23C48.6891 21.274 48.3171 22.786 48.3171 24.766C48.3171 26.746 48.6891 28.258 49.4331 29.302C50.1891 30.334 51.3471 30.85 52.9071 30.85ZM69.5649 17.8C69.9369 17.428 70.3269 17.086 70.7349 16.774C71.1549 16.45 71.5929 16.18 72.0489 15.964C72.5169 15.736 73.0149 15.562 73.5429 15.442C74.0709 15.31 74.6469 15.244 75.2709 15.244C76.2789 15.244 77.1729 15.418 77.9529 15.766C78.7329 16.102 79.3809 16.582 79.8969 17.206C80.4249 17.818 80.8209 18.556 81.0849 19.42C81.3609 20.272 81.4989 21.214 81.4989 22.246V34H77.0529V22.246C77.0529 21.118 76.7949 20.248 76.2789 19.636C75.7629 19.012 74.9769 18.7 73.9209 18.7C73.1529 18.7 72.4329 18.874 71.7609 19.222C71.0889 19.57 70.4529 20.044 69.8529 20.644V34H65.4069V15.532H68.1249C68.7009 15.532 69.0789 15.802 69.2589 16.342L69.5649 17.8ZM97.6253 22.642C97.6253 22.066 97.5413 21.526 97.3733 21.022C97.2173 20.506 96.9773 20.056 96.6533 19.672C96.3293 19.288 95.9153 18.988 95.4113 18.772C94.9193 18.544 94.3433 18.43 93.6833 18.43C92.3993 18.43 91.3853 18.796 90.6413 19.528C89.9093 20.26 89.4413 21.298 89.2373 22.642H97.6253ZM89.1473 25.324C89.2193 26.272 89.3873 27.094 89.6513 27.79C89.9153 28.474 90.2633 29.044 90.6953 29.5C91.1273 29.944 91.6373 30.28 92.2253 30.508C92.8253 30.724 93.4853 30.832 94.2053 30.832C94.9253 30.832 95.5433 30.748 96.0593 30.58C96.5873 30.412 97.0433 30.226 97.4273 30.022C97.8233 29.818 98.1653 29.632 98.4533 29.464C98.7533 29.296 99.0413 29.212 99.3173 29.212C99.6893 29.212 99.9653 29.35 100.145 29.626L101.423 31.246C100.931 31.822 100.379 32.308 99.7673 32.704C99.1553 33.088 98.5133 33.4 97.8413 33.64C97.1813 33.868 96.5033 34.03 95.8073 34.126C95.1233 34.222 94.4573 34.27 93.8093 34.27C92.5253 34.27 91.3313 34.06 90.2273 33.64C89.1233 33.208 88.1633 32.578 87.3473 31.75C86.5313 30.91 85.8893 29.878 85.4213 28.654C84.9533 27.418 84.7192 25.99 84.7192 24.37C84.7192 23.11 84.9233 21.928 85.3313 20.824C85.7393 19.708 86.3213 18.742 87.0773 17.926C87.8453 17.098 88.7753 16.444 89.8673 15.964C90.9713 15.484 92.2133 15.244 93.5933 15.244C94.7573 15.244 95.8313 15.43 96.8153 15.802C97.7993 16.174 98.6453 16.72 99.3533 17.44C100.061 18.148 100.613 19.024 101.009 20.068C101.417 21.1 101.621 22.282 101.621 23.614C101.621 24.286 101.549 24.742 101.405 24.982C101.261 25.21 100.985 25.324 100.577 25.324H89.1473ZM104.814 21.274H114.138V24.982H104.814V21.274Z" fill="white"/>
<path d="M149.154 24.172L145.986 15.514C145.83 15.13 145.668 14.674 145.5 14.146C145.332 13.618 145.164 13.048 144.996 12.436C144.84 13.048 144.678 13.624 144.51 14.164C144.342 14.692 144.18 15.154 144.024 15.55L140.874 24.172H149.154ZM157.704 34H153.96C153.54 34 153.198 33.898 152.934 33.694C152.67 33.478 152.472 33.214 152.34 32.902L150.396 27.592H139.614L137.67 32.902C137.574 33.178 137.388 33.43 137.112 33.658C136.836 33.886 136.494 34 136.086 34H132.306L142.548 7.972H147.48L157.704 34Z" fill="#7426B0"/>
</svg>
