<svg width="16" height="22" viewBox="0 0 16 22" fill="none" xmlns="http://www.w3.org/2000/svg">
<path d="M0.894907 21.7764H12.5314C13.0237 21.7764 13.4264 21.378 13.4264 20.8813L13.4266 4.98384C13.4266 4.49153 13.0282 4.08881 12.5316 4.08881H10.8532C10.7906 4.08881 10.7413 4.13798 10.7413 4.20073V5.66428C11.2873 5.66428 11.7169 6.15208 11.6229 6.71604C11.5513 7.15013 11.1351 7.45439 10.6919 7.45439H2.73901C2.29149 7.45439 1.87518 7.15 1.80353 6.71153C1.70956 6.15208 2.14367 5.66428 2.68514 5.66428L2.6853 4.20073C2.6853 4.13813 2.63613 4.08881 2.57338 4.08881H0.895036C0.402722 4.08881 0 4.49153 0 4.98384V20.8809C0 21.3778 0.402722 21.7761 0.895036 21.7761L0.894907 21.7764ZM3.56679 20.6127C3.56679 20.6484 3.53541 20.6798 3.49966 20.6798H1.84378C1.80804 20.6798 1.77666 20.6484 1.77666 20.6127V18.9567C1.77666 18.9164 1.80804 18.8895 1.84378 18.8895H3.49978C3.53553 18.8895 3.56691 18.9164 3.56691 18.9567L3.56679 20.6127ZM7.68871 20.6127C7.68871 20.6484 7.65734 20.6798 7.62159 20.6798H5.96571C5.92996 20.6798 5.89859 20.6484 5.89859 20.6127V18.9567C5.89859 18.9164 5.92996 18.8895 5.96571 18.8895H7.62159C7.65734 18.8895 7.68871 18.9164 7.68871 18.9567V20.6127ZM7.62159 18.1779H5.96571C5.92996 18.1779 5.89859 18.151 5.89859 18.1108V16.4548C5.89859 16.419 5.92996 16.3876 5.96571 16.3876H7.62159C7.65734 16.3876 7.68871 16.419 7.68871 16.4548V18.1108C7.68871 18.151 7.65749 18.1779 7.62159 18.1779ZM7.68871 15.6134C7.68871 15.6491 7.65734 15.6805 7.62159 15.6805H5.96571C5.92996 15.6805 5.89859 15.6491 5.89859 15.6134V13.9574C5.89859 13.9216 5.92996 13.8903 5.96571 13.8903H7.62159C7.65734 13.8903 7.68871 13.9216 7.68871 13.9574V15.6134ZM11.6228 20.6128C11.6228 20.6486 11.5914 20.68 11.5557 20.68H9.89966C9.86391 20.68 9.83254 20.6486 9.83254 20.6128V18.9568C9.83254 18.9166 9.86391 18.8897 9.89966 18.8897H11.5557C11.5914 18.8897 11.6228 18.9166 11.6228 18.9568V20.6128ZM11.6228 18.2631C11.6228 18.2989 11.5914 18.3302 11.5557 18.3302H9.89966C9.86391 18.3302 9.83254 18.2989 9.83254 18.2631V16.6071C9.83254 16.5668 9.86391 16.54 9.89966 16.54H11.5557C11.5914 16.54 11.6228 16.5668 11.6228 16.6071V18.2631ZM9.83251 15.7614V14.1054C9.83251 14.0696 9.86389 14.0383 9.89964 14.0383H11.5556C11.5914 14.0383 11.6228 14.0696 11.6228 14.1054V15.7614C11.6228 15.7971 11.5914 15.8285 11.5556 15.8285H9.89964C9.86389 15.8285 9.83251 15.7971 9.83251 15.7614ZM1.79006 8.9765C1.79006 8.73033 1.99143 8.52898 2.23758 8.52898H11.1887C11.4349 8.52898 11.6363 8.73034 11.6363 8.9765V12.557C11.6363 12.8032 11.4349 13.0046 11.1887 13.0046H2.23758C1.99142 13.0046 1.79006 12.8032 1.79006 12.557V8.9765ZM1.77648 13.958C1.77648 13.9222 1.80786 13.8908 1.8436 13.8908H3.49961C3.53535 13.8908 3.56673 13.9222 3.56673 13.958V15.614C3.56673 15.6497 3.53535 15.6811 3.49961 15.6811L1.84372 15.6809C1.80798 15.6809 1.7766 15.6496 1.7766 15.6138V13.9579L1.77648 13.958ZM1.77648 16.4553C1.77648 16.4196 1.80786 16.3882 1.8436 16.3882H3.49961C3.53535 16.3882 3.56673 16.4196 3.56673 16.4553V18.1113C3.56673 18.1516 3.53535 18.1785 3.49961 18.1785L1.84372 18.1783C1.80798 18.1783 1.7766 18.1515 1.7766 18.1112V16.4553L1.77648 16.4553Z" fill="#8C9FB1"/>
<path d="M9.84605 0.743538C9.84605 0.497374 9.64469 0.296021 9.39853 0.296021H4.02784C3.78168 0.296021 3.58032 0.497386 3.58032 0.743538V1.52684H9.84613L9.84605 0.743538Z" fill="#8C9FB1"/>
<path d="M3.58008 6.11424C3.58008 6.3604 3.78144 6.56176 4.0276 6.56176H9.39829C9.64445 6.56176 9.8458 6.36039 9.8458 6.11424L9.84596 2.34576H3.58015L3.58008 6.11424Z" fill="#8C9FB1"/>
<path d="M16.0001 18.8828V6.98219C16.0001 6.73602 15.7988 6.53467 15.5526 6.53467H14.3218V19.3304H15.5526C15.7988 19.3304 16.0001 19.1291 16.0001 18.8829V18.8828Z" fill="#8C9FB1"/>
</svg>
