<svg width="22" height="22" viewBox="0 0 22 22" fill="none" xmlns="http://www.w3.org/2000/svg">
<path fill-rule="evenodd" clip-rule="evenodd" d="M3.67521 16.4662C4.73174 14.7848 6.34805 13.5589 8.20195 12.9694C7.23351 12.2178 6.59938 11.0569 6.59938 9.74028C6.59938 7.47964 8.43785 5.64002 10.6999 5.64002C12.9605 5.64002 14.8002 7.47964 14.8002 9.74028C14.8002 11.0569 14.166 12.2193 13.1978 12.9694C15.0515 13.5588 16.668 14.7848 17.7243 16.4662C19.0931 14.8563 19.9252 12.7755 19.9252 10.502C19.9252 5.41408 15.7865 1.27506 10.7 1.27506C5.61356 1.27506 1.47484 5.41378 1.47484 10.502C1.47484 12.7755 2.30659 14.8563 3.67545 16.4662H3.67521ZM13.5245 9.74034C13.5245 8.1826 12.2577 6.91587 10.7001 6.91587C9.14239 6.91587 7.87535 8.18266 7.87535 9.74034C7.87535 11.298 9.14233 12.5651 10.7001 12.5651C12.2578 12.5651 13.5245 11.2981 13.5245 9.74034ZM10.7001 19.7261C13.0526 19.7261 15.1945 18.8343 16.8251 17.3801C16.8096 17.3597 16.7843 17.3495 16.7703 17.325C15.5123 15.1766 13.1878 13.841 10.7 13.841C8.21347 13.841 5.88759 15.1766 4.63106 17.3238C4.61706 17.348 4.59546 17.362 4.57885 17.3838C6.20919 18.8357 8.34996 19.7261 10.7002 19.7261L10.7001 19.7261ZM10.7002 0C16.4897 0 21.2012 4.71161 21.2012 10.5028C21.2012 16.2922 16.4896 21.0025 10.7002 21.0025C4.9105 21.0025 0.199247 16.2924 0.199247 10.5028C0.199247 4.71191 4.91062 0 10.7002 0Z" fill="#8C9FB1"/>
</svg>
