<svg width="21" height="20" viewBox="0 0 21 20" fill="none" xmlns="http://www.w3.org/2000/svg">
<path fill-rule="evenodd" clip-rule="evenodd" d="M18.4445 5.3333H17.3873L12.2491 0.195231C11.9888 -0.0650769 11.5667 -0.0650769 11.3063 0.195231L9.7778 1.72385L8.24918 0.195231C7.98887 -0.0650769 7.56673 -0.0650769 7.30638 0.195231L2.16831 5.3333H0.666681C0.298481 5.3333 0 5.63182 0 5.99998V19.3333C0 19.7015 0.298481 20 0.666681 20H15.7778H18.4445C19.5473 20 20.4445 19.1028 20.4445 18V15.3333V9.99999V7.3333C20.4445 6.23046 19.5473 5.3333 18.4445 5.3333ZM11.7778 1.60945L15.5017 5.33334H13.3873L10.7206 2.66665L11.7778 1.60945ZM9.30646 3.13807L7.77784 1.60945L4.05396 5.33334H11.5017L9.30646 3.13807ZM16.4444 18C16.4444 18.3676 16.1453 18.6667 15.7777 18.6667H1.33329V6.66666H2.4444H13.1111H15.7777C16.1453 6.66666 16.4444 6.96574 16.4444 7.33334V9.33334H14.4444C12.6064 9.33334 11.1111 10.8287 11.1111 12.6667C11.1111 14.5047 12.6064 16 14.4444 16H16.4444V18ZM18.4444 18.6667C18.812 18.6667 19.1111 18.3676 19.1111 18V16H17.7778V18C17.7778 18.2337 17.7371 18.458 17.6631 18.6667H18.4444ZM19.1111 14.6666H17.1111H14.4444C13.3416 14.6666 12.4444 13.7694 12.4444 12.6666C12.4444 11.5638 13.3416 10.6666 14.4444 10.6666H17.1111H19.1111V14.6666ZM17.7778 9.3333H19.1111V7.33329C19.1111 6.96565 18.812 6.66661 18.4444 6.66661H17.6631C17.7371 6.87529 17.7778 7.09962 17.7778 7.33329V9.3333Z" fill="#8C9FB1"/>
<circle cx="14.4445" cy="12.6667" r="0.666681" fill="#8C9FB1"/>
</svg>
