<svg width="15" height="15" viewBox="0 0 15 15" fill="none" xmlns="http://www.w3.org/2000/svg">
<path d="M1.64705 9.52324C2.60798 10.4835 3.88585 11.0605 5.24139 11.146C6.59714 11.2316 7.93732 10.8202 9.01145 9.98845L13.8077 14.7849C14.0802 15.057 14.5215 15.057 14.794 14.7849C14.9259 14.6547 15 14.4769 15 14.2916C15 14.1064 14.9259 13.9288 14.794 13.7986L10.0023 8.99302C10.8812 7.85387 11.2864 6.41942 11.1335 4.98892C10.9805 3.55841 10.281 2.24211 9.18111 1.31461C8.08119 0.38733 6.66568 -0.079794 5.22975 0.0111744C3.79382 0.102138 2.44848 0.743866 1.47441 1.80263C0.500186 2.86139 -0.027548 4.25537 0.00110887 5.69396C0.0299769 7.13239 0.612953 8.5041 1.62849 9.5232L1.64705 9.52324ZM2.6427 2.62431C3.56376 1.70447 4.86013 1.26526 6.15065 1.43592C7.44117 1.60684 8.57888 2.36799 9.2289 3.49592C9.87897 4.62365 9.96744 5.98956 9.46836 7.19187C8.9693 8.39413 7.93939 9.29589 6.68189 9.63175C5.42417 9.96778 4.08192 9.69966 3.04974 8.90629C2.01777 8.11293 1.41343 6.88472 1.41444 5.58293C1.41236 4.47223 1.85472 3.40703 2.6427 2.62431H2.6427Z" fill="#91A3AB"/>
</svg>
