<svg width="20" height="20" viewBox="0 0 20 20" fill="none" xmlns="http://www.w3.org/2000/svg">
<g filter="url(#filter0_i_7925_2489)">
<path d="M10 12.5C11.3807 12.5 12.5 11.3807 12.5 10C12.5 8.61929 11.3807 7.5 10 7.5C8.61929 7.5 7.5 8.61929 7.5 10C7.5 11.3807 8.61929 12.5 10 12.5Z" stroke="#818181" stroke-width="2" stroke-linecap="round" stroke-linejoin="round"/>
<path d="M15.6061 12.2728C15.5053 12.5013 15.4752 12.7548 15.5198 13.0005C15.5643 13.2463 15.6815 13.4731 15.8561 13.6516L15.9016 13.6971C16.0425 13.8378 16.1542 14.0049 16.2305 14.1888C16.3067 14.3727 16.346 14.5699 16.346 14.769C16.346 14.9681 16.3067 15.1653 16.2305 15.3492C16.1542 15.5332 16.0425 15.7003 15.9016 15.841C15.7609 15.9819 15.5938 16.0936 15.4098 16.1699C15.2259 16.2461 15.0287 16.2854 14.8296 16.2854C14.6305 16.2854 14.4334 16.2461 14.2494 16.1699C14.0655 16.0936 13.8984 15.9819 13.7577 15.841L13.7122 15.7955C13.5337 15.6209 13.3069 15.5037 13.0611 15.4592C12.8154 15.4146 12.5619 15.4447 12.3334 15.5455C12.1093 15.6416 11.9183 15.801 11.7836 16.0043C11.649 16.2075 11.5768 16.4457 11.5758 16.6895V16.8183C11.5758 17.2201 11.4162 17.6055 11.1321 17.8896C10.8479 18.1738 10.4625 18.3334 10.0607 18.3334C9.65884 18.3334 9.27346 18.1738 8.98931 17.8896C8.70517 17.6055 8.54554 17.2201 8.54554 16.8183V16.7501C8.53967 16.4993 8.4585 16.2561 8.31259 16.0521C8.16667 15.8481 7.96276 15.6927 7.72735 15.6061C7.49886 15.5053 7.24539 15.4752 6.99964 15.5198C6.75388 15.5643 6.52711 15.6815 6.34857 15.8561L6.30311 15.9016C6.1624 16.0425 5.99529 16.1542 5.81135 16.2305C5.62742 16.3067 5.43026 16.346 5.23114 16.346C5.03203 16.346 4.83487 16.3067 4.65093 16.2305C4.46699 16.1542 4.29989 16.0425 4.15917 15.9016C4.0183 15.7609 3.90654 15.5938 3.83029 15.4098C3.75405 15.2259 3.7148 15.0287 3.7148 14.8296C3.7148 14.6305 3.75405 14.4334 3.83029 14.2494C3.90654 14.0655 4.0183 13.8984 4.15917 13.7577L4.20463 13.7122C4.37928 13.5337 4.49643 13.3069 4.54099 13.0611C4.58555 12.8154 4.55547 12.5619 4.45463 12.3334C4.35859 12.1093 4.19914 11.9183 3.99589 11.7836C3.79264 11.649 3.55447 11.5768 3.31069 11.5758H3.1819C2.78006 11.5758 2.39467 11.4162 2.11053 11.1321C1.82638 10.8479 1.66675 10.4625 1.66675 10.0607C1.66675 9.65884 1.82638 9.27346 2.11053 8.98931C2.39467 8.70517 2.78006 8.54554 3.1819 8.54554H3.25008C3.50083 8.53967 3.74402 8.4585 3.94804 8.31259C4.15205 8.16667 4.30744 7.96276 4.39402 7.72735C4.49487 7.49886 4.52495 7.24539 4.48039 6.99964C4.43583 6.75388 4.31867 6.52711 4.14402 6.34857L4.09857 6.30311C3.95769 6.1624 3.84594 5.99529 3.76969 5.81135C3.69344 5.62742 3.65419 5.43026 3.65419 5.23114C3.65419 5.03203 3.69344 4.83487 3.76969 4.65093C3.84594 4.46699 3.95769 4.29989 4.09857 4.15917C4.23928 4.0183 4.40639 3.90654 4.59032 3.83029C4.77426 3.75405 4.97142 3.7148 5.17054 3.7148C5.36965 3.7148 5.56681 3.75405 5.75075 3.83029C5.93469 3.90654 6.10179 4.0183 6.24251 4.15917L6.28796 4.20463C6.46651 4.37928 6.69328 4.49643 6.93903 4.54099C7.18478 4.58555 7.43825 4.55547 7.66675 4.45463H7.72735C7.95142 4.35859 8.14252 4.19914 8.27712 3.99589C8.41172 3.79264 8.48396 3.55447 8.48493 3.31069V3.1819C8.48493 2.78006 8.64456 2.39467 8.92871 2.11053C9.21285 1.82638 9.59824 1.66675 10.0001 1.66675C10.4019 1.66675 10.7873 1.82638 11.0715 2.11053C11.3556 2.39467 11.5152 2.78006 11.5152 3.1819V3.25008C11.5162 3.49386 11.5884 3.73203 11.723 3.93528C11.8576 4.13853 12.0487 4.29799 12.2728 4.39402C12.5013 4.49487 12.7548 4.52495 13.0005 4.48039C13.2463 4.43583 13.4731 4.31867 13.6516 4.14402L13.6971 4.09857C13.8378 3.95769 14.0049 3.84594 14.1888 3.76969C14.3727 3.69344 14.5699 3.65419 14.769 3.65419C14.9681 3.65419 15.1653 3.69344 15.3492 3.76969C15.5332 3.84594 15.7003 3.95769 15.841 4.09857C15.9819 4.23928 16.0936 4.40639 16.1699 4.59032C16.2461 4.77426 16.2854 4.97142 16.2854 5.17054C16.2854 5.36965 16.2461 5.56681 16.1699 5.75075C16.0936 5.93469 15.9819 6.10179 15.841 6.24251L15.7955 6.28796C15.6209 6.46651 15.5037 6.69328 15.4592 6.93903C15.4146 7.18478 15.4447 7.43825 15.5455 7.66675V7.72735C15.6416 7.95142 15.801 8.14252 16.0043 8.27712C16.2075 8.41172 16.4457 8.48396 16.6895 8.48493H16.8183C17.2201 8.48493 17.6055 8.64456 17.8896 8.92871C18.1738 9.21285 18.3334 9.59824 18.3334 10.0001C18.3334 10.4019 18.1738 10.7873 17.8896 11.0715C17.6055 11.3556 17.2201 11.5152 16.8183 11.5152H16.7501C16.5063 11.5162 16.2681 11.5884 16.0649 11.723C15.8616 11.8576 15.7022 12.0487 15.6061 12.2728V12.2728Z" stroke="#818181" stroke-width="2" stroke-linecap="round" stroke-linejoin="round"/>
</g>
<defs>
<filter id="filter0_i_7925_2489" x="0.666748" y="0.666748" width="18.6667" height="19.6667" filterUnits="userSpaceOnUse" color-interpolation-filters="sRGB">
<feFlood flood-opacity="0" result="BackgroundImageFix"/>
<feBlend mode="normal" in="SourceGraphic" in2="BackgroundImageFix" result="shape"/>
<feColorMatrix in="SourceAlpha" type="matrix" values="0 0 0 0 0 0 0 0 0 0 0 0 0 0 0 0 0 0 127 0" result="hardAlpha"/>
<feOffset dy="1"/>
<feGaussianBlur stdDeviation="1"/>
<feComposite in2="hardAlpha" operator="arithmetic" k2="-1" k3="1"/>
<feColorMatrix type="matrix" values="0 0 0 0 0.351493 0 0 0 0 0.39658 0 0 0 0 0.441667 0 0 0 0.42 0"/>
<feBlend mode="normal" in2="shape" result="effect1_innerShadow_7925_2489"/>
</filter>
</defs>
</svg>
