<svg width="117" height="117" viewBox="0 0 117 117" fill="none" xmlns="http://www.w3.org/2000/svg">
<g filter="url(#filter0_d_7027_1418)">
<circle cx="58.5" cy="58.5" r="43.5" fill="#35C655"/>
<circle cx="58.5" cy="58.5" r="41.5" stroke="#FFFBFB" stroke-width="4"/>
</g>
<path d="M54.8954 74.8111C54.237 74.7244 53.6253 74.425 53.1532 73.9575L41.5624 62.486C40.9885 61.9183 40.6636 61.1453 40.6591 60.338C40.6548 59.5301 40.9713 58.7539 41.5387 58.1794C42.1061 57.6049 42.8785 57.2797 43.6853 57.2751C44.4926 57.2706 45.2682 57.5867 45.8421 58.1549L55.1329 67.3522L74.2793 45.4605L74.2794 45.4601C74.8094 44.8479 75.5616 44.4717 76.3693 44.4158C77.1771 44.3597 77.9739 44.6286 78.5827 45.1623C79.192 45.6956 79.5635 46.4506 79.615 47.2589C79.6664 48.0677 79.3935 48.8635 78.857 49.4705L57.5811 73.7973C56.9114 74.5636 55.903 74.9436 54.8947 74.8108L54.8954 74.8111Z" fill="white"/>
<circle cx="86.5" cy="27.5" r="4.5" fill="#FF6AF9" stroke="white" stroke-width="2"/>
<circle cx="78" cy="95" r="7" fill="#FF6AF9" stroke="white" stroke-width="2"/>
<circle cx="20" cy="50" r="5" fill="#FF6AF9" stroke="white" stroke-width="2"/>
<defs>
<filter id="filter0_d_7027_1418" x="0" y="0" width="117" height="117" filterUnits="userSpaceOnUse" color-interpolation-filters="sRGB">
<feFlood flood-opacity="0" result="BackgroundImageFix"/>
<feColorMatrix in="SourceAlpha" type="matrix" values="0 0 0 0 0 0 0 0 0 0 0 0 0 0 0 0 0 0 127 0" result="hardAlpha"/>
<feOffset/>
<feGaussianBlur stdDeviation="7.5"/>
<feComposite in2="hardAlpha" operator="out"/>
<feColorMatrix type="matrix" values="0 0 0 0 0 0 0 0 0 0 0 0 0 0 0 0 0 0 0.25 0"/>
<feBlend mode="normal" in2="BackgroundImageFix" result="effect1_dropShadow_7027_1418"/>
<feBlend mode="normal" in="SourceGraphic" in2="effect1_dropShadow_7027_1418" result="shape"/>
</filter>
</defs>
</svg>
