<svg width="203" height="43" viewBox="0 0 203 43" fill="none" xmlns="http://www.w3.org/2000/svg">
<g clip-path="url(#clip0_2_465)">
<path d="M40.6526 33.1479L31.9153 18.1391L21.3577 0L10.8002 18.1591L2.06293 33.168C7.099 28.4526 13.8744 25.5432 21.3577 25.5432C28.8411 25.5432 35.6367 28.4326 40.6526 33.1479Z" fill="white"/>
<path d="M21.3578 37.482C26.1309 37.482 30.4187 39.629 33.2704 43.0201H42.7156C38.9537 35.0541 30.8029 29.5161 21.3578 29.5161C11.9126 29.496 3.76188 35.0341 0 43H9.44515C12.2969 39.629 16.5846 37.482 21.3578 37.482Z" fill="white"/>
<path d="M55.8417 11.8586C55.8417 11.1764 56.408 10.6146 57.0552 10.6146H64.0531C69.0083 10.6146 72.2645 13.2231 72.2645 17.517V17.5772C72.2645 22.2725 68.3206 24.7004 63.6486 24.7004H58.3294V31.3019C58.3294 31.9841 57.7631 32.546 57.0754 32.546C56.408 32.546 55.8619 31.9841 55.8619 31.3019V11.8586H55.8417ZM63.7295 22.4732C67.37 22.4732 69.7364 20.5469 69.7364 17.6776V17.6174C69.7364 14.5072 67.3903 12.8819 63.8509 12.8819H58.3091V22.4732H63.7295Z" fill="white"/>
<path d="M77.1388 11.7182C77.1388 11.036 77.7051 10.4741 78.3523 10.4741C79.04 10.4741 79.6063 11.036 79.6063 11.7182V20.3061H92.2672V11.7182C92.2672 11.036 92.8335 10.4741 93.5212 10.4741C94.1886 10.4741 94.7347 11.036 94.7347 11.7182V31.3019C94.7347 31.9842 94.1684 32.546 93.5212 32.546C92.8335 32.546 92.2672 31.9842 92.2672 31.3019V22.5936H79.6063V31.3019C79.6063 31.9842 79.04 32.546 78.3523 32.546C77.6849 32.546 77.1388 31.9842 77.1388 31.3019V11.7182Z" fill="white"/>
<path d="M99.9325 21.5702V21.51C99.9325 15.5105 104.483 10.2534 111.157 10.2534C117.832 10.2534 122.322 15.4503 122.322 21.4498V21.51C122.322 27.5095 117.771 32.7667 111.097 32.7667C104.422 32.7667 99.9325 27.5697 99.9325 21.5702ZM119.733 21.5702V21.51C119.733 16.5739 116.092 12.5207 111.077 12.5207C106.061 12.5207 102.481 16.4937 102.481 21.4498V21.51C102.481 26.4461 106.121 30.4993 111.137 30.4993C116.173 30.4792 119.733 26.5063 119.733 21.5702Z" fill="white"/>
<path d="M127.762 11.7382C127.762 11.0761 128.329 10.5343 128.976 10.5343H129.32C129.886 10.5343 130.23 10.8152 130.574 11.2567L143.882 28.1115V11.678C143.882 11.0159 144.408 10.4741 145.095 10.4741C145.763 10.4741 146.289 11.036 146.289 11.678V31.322C146.289 31.9842 145.823 32.4657 145.156 32.4657H145.035C144.509 32.4657 144.125 32.1647 143.76 31.7233L130.169 14.4671V31.322C130.169 31.9842 129.643 32.5259 128.956 32.5259C128.288 32.5259 127.762 31.9641 127.762 31.322V11.7382Z" fill="white"/>
<path d="M152.66 31.1414V11.8586C152.66 11.1764 153.226 10.6146 153.873 10.6146H167.505C168.132 10.6146 168.638 11.1162 168.638 11.7382C168.638 12.3602 168.132 12.8619 167.505 12.8619H155.127V20.2861H166.089C166.716 20.2861 167.222 20.8077 167.222 21.4097C167.222 22.0317 166.716 22.5334 166.089 22.5334H155.127V30.1582H167.667C168.294 30.1582 168.799 30.6598 168.799 31.2818C168.799 31.9039 168.294 32.4055 167.667 32.4055H153.873C153.226 32.3854 152.66 31.8236 152.66 31.1414Z" fill="white"/>
<path d="M181.824 30.7602L190.723 11.4573C191.027 10.7751 191.512 10.3738 192.281 10.3738H192.402C193.15 10.3738 193.656 10.7751 193.939 11.4573L202.838 30.7401C202.939 30.9608 203 31.1815 203 31.3621C203 32.0243 202.474 32.546 201.807 32.546C201.22 32.546 200.795 32.1447 200.593 31.643L198.308 26.6468H186.274L183.968 31.7032C183.746 32.2249 183.341 32.546 182.775 32.546C182.148 32.546 181.642 32.0443 181.642 31.4223C181.662 31.2417 181.683 31.021 181.824 30.7602ZM197.337 24.3994L192.301 13.2632L187.265 24.3994H197.337Z" fill="white"/>
</g>
<defs>
<clipPath id="clip0_2_465">
<rect width="203" height="43" fill="white"/>
</clipPath>
</defs>
</svg>
